<svg width="1440" height="1024" viewBox="0 0 1440 1024" fill="none" xmlns="http://www.w3.org/2000/svg">
<rect width="1440" height="1024" fill="#DBEAFF"/>
<mask id="path-1-outside-1_4_326" maskUnits="userSpaceOnUse" x="293" y="181" width="1110" height="322" fill="black">
<rect fill="white" x="293" y="181" width="1110" height="322"/>
<path d="M296.68 236.846H322.988V263.154H296.68V236.846ZM296.68 263.154H322.988V289.462H296.68V263.154ZM296.68 289.462H322.988V315.769H296.68V289.462ZM296.68 315.769H322.988V342.077H296.68V315.769ZM296.68 342.077H322.988V368.385H296.68V342.077ZM322.988 368.385H349.296V394.692H322.988V368.385ZM349.296 394.692H375.603V421H349.296V394.692ZM375.603 394.692H401.911V421H375.603V394.692ZM401.911 394.692H428.219V421H401.911V394.692ZM428.219 394.692H454.527V421H428.219V394.692ZM454.527 368.385H480.834V394.692H454.527V368.385ZM480.834 342.077H507.142V368.385H480.834V342.077ZM480.834 315.769H507.142V342.077H480.834V315.769ZM480.834 289.462H507.142V315.769H480.834V289.462ZM454.527 263.154H480.834V289.462H454.527V263.154ZM454.527 184.231H480.834V210.538H454.527V184.231ZM375.603 184.231H401.911V210.538H375.603V184.231ZM349.296 184.231H375.603V210.538H349.296V184.231ZM322.988 210.538H349.296V236.846H322.988V210.538ZM375.603 263.154H401.911V289.462H375.603V263.154ZM401.911 263.154H428.219V289.462H401.911V263.154ZM375.603 289.462H401.911V315.769H375.603V289.462ZM375.603 315.769H401.911V342.077H375.603V315.769ZM349.296 315.769H375.603V342.077H349.296V315.769ZM401.911 184.231H428.219V210.538H401.911V184.231ZM428.219 210.538H454.527V236.846H428.219V210.538ZM428.219 263.154H454.527V289.462H428.219V263.154ZM519.795 184.231H546.103V210.538H519.795V184.231ZM546.103 184.231H572.411V210.538H546.103V184.231ZM546.103 210.538H572.411V236.846H546.103V210.538ZM546.103 236.846H572.411V263.154H546.103V236.846ZM546.103 263.154H572.411V289.462H546.103V263.154ZM546.103 289.462H572.411V315.769H546.103V289.462ZM546.103 315.769H572.411V342.077H546.103V315.769ZM519.795 368.385H546.103V394.692H519.795V368.385ZM572.411 394.692H598.718V421H572.411V394.692ZM546.103 394.692H572.411V421H546.103V394.692ZM598.718 368.385H625.026V394.692H598.718V368.385ZM625.026 342.077H651.334V368.385H625.026V342.077ZM651.334 315.769H677.641V342.077H651.334V315.769ZM651.334 342.077H677.641V368.385H651.334V342.077ZM651.334 368.385H677.641V394.692H651.334V368.385ZM677.641 394.692H703.949V421H677.641V394.692ZM651.334 289.462H677.641V315.769H651.334V289.462ZM651.334 263.154H677.641V289.462H651.334V263.154ZM651.334 236.846H677.641V263.154H651.334V236.846ZM651.334 210.538H677.641V236.846H651.334V210.538ZM651.334 184.231H677.641V210.538H651.334V184.231ZM625.026 184.231H651.334V210.538H625.026V184.231ZM519.795 342.077H546.103V368.385H519.795V342.077ZM716.525 236.846H742.833V263.154H716.525V236.846ZM716.525 263.154H742.833V289.462H716.525V263.154ZM716.525 289.462H742.833V315.769H716.525V289.462ZM716.525 315.769H742.833V342.077H716.525V315.769ZM742.833 342.077H769.141V368.385H742.833V342.077ZM742.833 368.385H769.141V394.692H742.833V368.385ZM769.141 368.385H795.449V394.692H769.141V368.385ZM795.449 394.692H821.756V421H795.449V394.692ZM821.756 394.692H848.064V421H821.756V394.692ZM848.064 394.692H874.372V421H848.064V394.692ZM874.372 394.692H900.679V421H874.372V394.692ZM900.679 368.385H926.987V394.692H900.679V368.385ZM926.987 342.077H953.295V368.385H926.987V342.077ZM926.987 315.769H953.295V342.077H926.987V315.769ZM926.987 289.462H953.295V315.769H926.987V289.462ZM900.679 263.154H926.987V289.462H900.679V263.154ZM874.372 263.154H900.679V289.462H874.372V263.154ZM848.064 289.462H874.372V315.769H848.064V289.462ZM821.756 315.769H848.064V342.077H821.756V315.769ZM795.449 315.769H821.756V342.077H795.449V315.769ZM769.141 289.462H795.449V315.769H769.141V289.462ZM769.141 263.154H795.449V289.462H769.141V263.154ZM795.449 263.154H821.756V289.462H795.449V263.154ZM742.833 210.538H769.141V236.846H742.833V210.538ZM769.141 184.231H795.449V210.538H769.141V184.231ZM795.449 184.231H821.756V210.538H795.449V184.231ZM821.756 184.231H848.064V210.538H821.756V184.231ZM848.064 184.231H874.372V210.538H848.064V184.231ZM848.064 210.538H874.372V236.846H848.064V210.538ZM874.372 210.538H900.679V236.846H874.372V210.538ZM900.679 210.538H926.987V236.846H900.679V210.538ZM926.987 184.231H953.295V210.538H926.987V184.231ZM966.025 263.154H992.333V289.462H966.025V263.154ZM966.025 236.846H992.333V263.154H966.025V236.846ZM966.025 210.538H992.333V236.846H966.025V210.538ZM992.333 184.231H1018.64V210.538H992.333V184.231ZM1018.64 184.231H1044.95V210.538H1018.64V184.231ZM1044.95 184.231H1071.26V210.538H1044.95V184.231ZM1071.26 210.538H1097.56V236.846H1071.26V210.538ZM1150.18 210.538H1176.49V236.846H1150.18V210.538ZM1150.18 184.231H1176.49V210.538H1150.18V184.231ZM1123.87 184.231H1150.18V210.538H1123.87V184.231ZM992.333 289.462H1018.64V315.769H992.333V289.462ZM1123.87 368.385H1150.18V394.692H1123.87V368.385ZM1150.18 394.692H1176.49V421H1150.18V394.692ZM1150.18 421H1176.49V447.308H1150.18V421ZM1150.18 447.308H1176.49V473.615H1150.18V447.308ZM1123.87 473.615H1150.18V499.923H1123.87V473.615ZM1097.56 473.615H1123.87V499.923H1097.56V473.615ZM1071.26 473.615H1097.56V499.923H1071.26V473.615ZM1044.95 473.615H1071.26V499.923H1044.95V473.615ZM1018.64 447.308H1044.95V473.615H1018.64V447.308ZM1018.64 421H1044.95V447.308H1018.64V421ZM992.333 394.692H1018.64V421H992.333V394.692ZM966.025 394.692H992.333V421H966.025V394.692ZM966.025 421H992.333V447.308H966.025V421ZM1123.87 236.846H1150.18V263.154H1123.87V236.846ZM1097.56 263.154H1123.87V289.462H1097.56V263.154ZM1150.18 263.154H1176.49V289.462H1150.18V263.154ZM1123.87 289.462H1150.18V315.769H1123.87V289.462ZM1123.87 315.769H1150.18V342.077H1123.87V315.769ZM1123.87 342.077H1150.18V368.385H1123.87V342.077ZM1097.56 210.538H1123.87V236.846H1097.56V210.538ZM1018.64 263.154H1044.95V289.462H1018.64V263.154ZM1189.14 236.846H1215.45V263.154H1189.14V236.846ZM1189.14 210.538H1215.45V236.846H1189.14V210.538ZM1215.45 184.231H1241.76V210.538H1215.45V184.231ZM1241.76 184.231H1268.06V210.538H1241.76V184.231ZM1268.06 184.231H1294.37V210.538H1268.06V184.231ZM1294.37 210.538H1320.68V236.846H1294.37V210.538ZM1373.29 210.538H1399.6V236.846H1373.29V210.538ZM1373.29 184.231H1399.6V210.538H1373.29V184.231ZM1346.99 184.231H1373.29V210.538H1346.99V184.231ZM1215.45 263.154H1241.76V289.462H1215.45V263.154ZM1373.29 315.769H1399.6V342.077H1373.29V315.769ZM1373.29 342.077H1399.6V368.385H1373.29V342.077ZM1373.29 368.385H1399.6V394.692H1373.29V368.385ZM1346.99 394.692H1373.29V421H1346.99V394.692ZM1320.68 394.692H1346.99V421H1320.68V394.692ZM1294.37 394.692H1320.68V421H1294.37V394.692ZM1268.06 394.692H1294.37V421H1268.06V394.692ZM1241.76 368.385H1268.06V394.692H1241.76V368.385ZM1215.45 342.077H1241.76V368.385H1215.45V342.077ZM1189.14 342.077H1215.45V368.385H1189.14V342.077ZM1189.14 368.385H1215.45V394.692H1189.14V368.385ZM1346.99 236.846H1373.29V263.154H1346.99V236.846ZM1320.68 263.154H1346.99V289.462H1320.68V263.154ZM1373.29 263.154H1399.6V289.462H1373.29V263.154ZM1346.99 289.462H1373.29V315.769H1346.99V289.462ZM1320.68 210.538H1346.99V236.846H1320.68V210.538ZM1241.76 236.846H1268.06V263.154H1241.76V236.846Z"/>
</mask>
<path d="M296.68 236.846V233.846H293.68V236.846H296.68ZM322.988 236.846H325.988V233.846H322.988V236.846ZM322.988 263.154V266.154H325.988V263.154H322.988ZM296.68 263.154H293.68V266.154H296.68V263.154ZM296.68 263.154V260.154H293.68V263.154H296.68ZM322.988 263.154H325.988V260.154H322.988V263.154ZM322.988 289.462V292.462H325.988V289.462H322.988ZM296.68 289.462H293.68V292.462H296.68V289.462ZM296.68 289.462V286.462H293.68V289.462H296.68ZM322.988 289.462H325.988V286.462H322.988V289.462ZM322.988 315.769V318.769H325.988V315.769H322.988ZM296.68 315.769H293.68V318.769H296.68V315.769ZM296.68 315.769V312.769H293.68V315.769H296.68ZM322.988 315.769H325.988V312.769H322.988V315.769ZM322.988 342.077V345.077H325.988V342.077H322.988ZM296.68 342.077H293.68V345.077H296.68V342.077ZM296.68 342.077V339.077H293.68V342.077H296.68ZM322.988 342.077H325.988V339.077H322.988V342.077ZM322.988 368.385V371.385H325.988V368.385H322.988ZM296.68 368.385H293.68V371.385H296.68V368.385ZM322.988 368.385V365.385H319.988V368.385H322.988ZM349.296 368.385H352.296V365.385H349.296V368.385ZM349.296 394.692V397.692H352.296V394.692H349.296ZM322.988 394.692H319.988V397.692H322.988V394.692ZM349.296 394.692V391.692H346.296V394.692H349.296ZM375.603 394.692H378.603V391.692H375.603V394.692ZM375.603 421V424H378.603V421H375.603ZM349.296 421H346.296V424H349.296V421ZM375.603 394.692V391.692H372.603V394.692H375.603ZM401.911 394.692H404.911V391.692H401.911V394.692ZM401.911 421V424H404.911V421H401.911ZM375.603 421H372.603V424H375.603V421ZM401.911 394.692V391.692H398.911V394.692H401.911ZM428.219 394.692H431.219V391.692H428.219V394.692ZM428.219 421V424H431.219V421H428.219ZM401.911 421H398.911V424H401.911V421ZM428.219 394.692V391.692H425.219V394.692H428.219ZM454.527 394.692H457.527V391.692H454.527V394.692ZM454.527 421V424H457.527V421H454.527ZM428.219 421H425.219V424H428.219V421ZM454.527 368.385V365.385H451.527V368.385H454.527ZM480.834 368.385H483.834V365.385H480.834V368.385ZM480.834 394.692V397.692H483.834V394.692H480.834ZM454.527 394.692H451.527V397.692H454.527V394.692ZM480.834 342.077V339.077H477.834V342.077H480.834ZM507.142 342.077H510.142V339.077H507.142V342.077ZM507.142 368.385V371.385H510.142V368.385H507.142ZM480.834 368.385H477.834V371.385H480.834V368.385ZM480.834 315.769V312.769H477.834V315.769H480.834ZM507.142 315.769H510.142V312.769H507.142V315.769ZM507.142 342.077V345.077H510.142V342.077H507.142ZM480.834 342.077H477.834V345.077H480.834V342.077ZM480.834 289.462V286.462H477.834V289.462H480.834ZM507.142 289.462H510.142V286.462H507.142V289.462ZM507.142 315.769V318.769H510.142V315.769H507.142ZM480.834 315.769H477.834V318.769H480.834V315.769ZM454.527 263.154V260.154H451.527V263.154H454.527ZM480.834 263.154H483.834V260.154H480.834V263.154ZM480.834 289.462V292.462H483.834V289.462H480.834ZM454.527 289.462H451.527V292.462H454.527V289.462ZM454.527 184.231V181.231H451.527V184.231H454.527ZM480.834 184.231H483.834V181.231H480.834V184.231ZM480.834 210.538V213.538H483.834V210.538H480.834ZM454.527 210.538H451.527V213.538H454.527V210.538ZM375.603 184.231V181.231H372.603V184.231H375.603ZM401.911 184.231H404.911V181.231H401.911V184.231ZM401.911 210.538V213.538H404.911V210.538H401.911ZM375.603 210.538H372.603V213.538H375.603V210.538ZM349.296 184.231V181.231H346.296V184.231H349.296ZM375.603 184.231H378.603V181.231H375.603V184.231ZM375.603 210.538V213.538H378.603V210.538H375.603ZM349.296 210.538H346.296V213.538H349.296V210.538ZM322.988 210.538V207.538H319.988V210.538H322.988ZM349.296 210.538H352.296V207.538H349.296V210.538ZM349.296 236.846V239.846H352.296V236.846H349.296ZM322.988 236.846H319.988V239.846H322.988V236.846ZM375.603 263.154V260.154H372.603V263.154H375.603ZM401.911 263.154H404.911V260.154H401.911V263.154ZM401.911 289.462V292.462H404.911V289.462H401.911ZM375.603 289.462H372.603V292.462H375.603V289.462ZM401.911 263.154V260.154H398.911V263.154H401.911ZM428.219 263.154H431.219V260.154H428.219V263.154ZM428.219 289.462V292.462H431.219V289.462H428.219ZM401.911 289.462H398.911V292.462H401.911V289.462ZM375.603 289.462V286.462H372.603V289.462H375.603ZM401.911 289.462H404.911V286.462H401.911V289.462ZM401.911 315.769V318.769H404.911V315.769H401.911ZM375.603 315.769H372.603V318.769H375.603V315.769ZM375.603 315.769V312.769H372.603V315.769H375.603ZM401.911 315.769H404.911V312.769H401.911V315.769ZM401.911 342.077V345.077H404.911V342.077H401.911ZM375.603 342.077H372.603V345.077H375.603V342.077ZM349.296 315.769V312.769H346.296V315.769H349.296ZM375.603 315.769H378.603V312.769H375.603V315.769ZM375.603 342.077V345.077H378.603V342.077H375.603ZM349.296 342.077H346.296V345.077H349.296V342.077ZM401.911 184.231V181.231H398.911V184.231H401.911ZM428.219 184.231H431.219V181.231H428.219V184.231ZM428.219 210.538V213.538H431.219V210.538H428.219ZM401.911 210.538H398.911V213.538H401.911V210.538ZM428.219 210.538V207.538H425.219V210.538H428.219ZM454.527 210.538H457.527V207.538H454.527V210.538ZM454.527 236.846V239.846H457.527V236.846H454.527ZM428.219 236.846H425.219V239.846H428.219V236.846ZM428.219 263.154V260.154H425.219V263.154H428.219ZM454.527 263.154H457.527V260.154H454.527V263.154ZM454.527 289.462V292.462H457.527V289.462H454.527ZM428.219 289.462H425.219V292.462H428.219V289.462ZM296.68 236.846V239.846H322.988V236.846V233.846H296.68V236.846ZM322.988 236.846H319.988V263.154H322.988H325.988V236.846H322.988ZM322.988 263.154V260.154H296.68V263.154V266.154H322.988V263.154ZM296.68 263.154H299.68V236.846H296.68H293.68V263.154H296.68ZM296.68 263.154V266.154H322.988V263.154V260.154H296.68V263.154ZM322.988 263.154H319.988V289.462H322.988H325.988V263.154H322.988ZM322.988 289.462V286.462H296.68V289.462V292.462H322.988V289.462ZM296.68 289.462H299.68V263.154H296.68H293.68V289.462H296.68ZM296.68 289.462V292.462H322.988V289.462V286.462H296.68V289.462ZM322.988 289.462H319.988V315.769H322.988H325.988V289.462H322.988ZM322.988 315.769V312.769H296.68V315.769V318.769H322.988V315.769ZM296.68 315.769H299.68V289.462H296.68H293.68V315.769H296.68ZM296.68 315.769V318.769H322.988V315.769V312.769H296.68V315.769ZM322.988 315.769H319.988V342.077H322.988H325.988V315.769H322.988ZM322.988 342.077V339.077H296.68V342.077V345.077H322.988V342.077ZM296.68 342.077H299.68V315.769H296.68H293.68V342.077H296.68ZM296.68 342.077V345.077H322.988V342.077V339.077H296.68V342.077ZM322.988 342.077H319.988V368.385H322.988H325.988V342.077H322.988ZM322.988 368.385V365.385H296.68V368.385V371.385H322.988V368.385ZM296.68 368.385H299.68V342.077H296.68H293.68V368.385H296.68ZM322.988 368.385V371.385H349.296V368.385V365.385H322.988V368.385ZM349.296 368.385H346.296V394.692H349.296H352.296V368.385H349.296ZM349.296 394.692V391.692H322.988V394.692V397.692H349.296V394.692ZM322.988 394.692H325.988V368.385H322.988H319.988V394.692H322.988ZM349.296 394.692V397.692H375.603V394.692V391.692H349.296V394.692ZM375.603 394.692H372.603V421H375.603H378.603V394.692H375.603ZM375.603 421V418H349.296V421V424H375.603V421ZM349.296 421H352.296V394.692H349.296H346.296V421H349.296ZM375.603 394.692V397.692H401.911V394.692V391.692H375.603V394.692ZM401.911 394.692H398.911V421H401.911H404.911V394.692H401.911ZM401.911 421V418H375.603V421V424H401.911V421ZM375.603 421H378.603V394.692H375.603H372.603V421H375.603ZM401.911 394.692V397.692H428.219V394.692V391.692H401.911V394.692ZM428.219 394.692H425.219V421H428.219H431.219V394.692H428.219ZM428.219 421V418H401.911V421V424H428.219V421ZM401.911 421H404.911V394.692H401.911H398.911V421H401.911ZM428.219 394.692V397.692H454.527V394.692V391.692H428.219V394.692ZM454.527 394.692H451.527V421H454.527H457.527V394.692H454.527ZM454.527 421V418H428.219V421V424H454.527V421ZM428.219 421H431.219V394.692H428.219H425.219V421H428.219ZM454.527 368.385V371.385H480.834V368.385V365.385H454.527V368.385ZM480.834 368.385H477.834V394.692H480.834H483.834V368.385H480.834ZM480.834 394.692V391.692H454.527V394.692V397.692H480.834V394.692ZM454.527 394.692H457.527V368.385H454.527H451.527V394.692H454.527ZM480.834 342.077V345.077H507.142V342.077V339.077H480.834V342.077ZM507.142 342.077H504.142V368.385H507.142H510.142V342.077H507.142ZM507.142 368.385V365.385H480.834V368.385V371.385H507.142V368.385ZM480.834 368.385H483.834V342.077H480.834H477.834V368.385H480.834ZM480.834 315.769V318.769H507.142V315.769V312.769H480.834V315.769ZM507.142 315.769H504.142V342.077H507.142H510.142V315.769H507.142ZM507.142 342.077V339.077H480.834V342.077V345.077H507.142V342.077ZM480.834 342.077H483.834V315.769H480.834H477.834V342.077H480.834ZM480.834 289.462V292.462H507.142V289.462V286.462H480.834V289.462ZM507.142 289.462H504.142V315.769H507.142H510.142V289.462H507.142ZM507.142 315.769V312.769H480.834V315.769V318.769H507.142V315.769ZM480.834 315.769H483.834V289.462H480.834H477.834V315.769H480.834ZM454.527 263.154V266.154H480.834V263.154V260.154H454.527V263.154ZM480.834 263.154H477.834V289.462H480.834H483.834V263.154H480.834ZM480.834 289.462V286.462H454.527V289.462V292.462H480.834V289.462ZM454.527 289.462H457.527V263.154H454.527H451.527V289.462H454.527ZM454.527 184.231V187.231H480.834V184.231V181.231H454.527V184.231ZM480.834 184.231H477.834V210.538H480.834H483.834V184.231H480.834ZM480.834 210.538V207.538H454.527V210.538V213.538H480.834V210.538ZM454.527 210.538H457.527V184.231H454.527H451.527V210.538H454.527ZM375.603 184.231V187.231H401.911V184.231V181.231H375.603V184.231ZM401.911 184.231H398.911V210.538H401.911H404.911V184.231H401.911ZM401.911 210.538V207.538H375.603V210.538V213.538H401.911V210.538ZM375.603 210.538H378.603V184.231H375.603H372.603V210.538H375.603ZM349.296 184.231V187.231H375.603V184.231V181.231H349.296V184.231ZM375.603 184.231H372.603V210.538H375.603H378.603V184.231H375.603ZM375.603 210.538V207.538H349.296V210.538V213.538H375.603V210.538ZM349.296 210.538H352.296V184.231H349.296H346.296V210.538H349.296ZM322.988 210.538V213.538H349.296V210.538V207.538H322.988V210.538ZM349.296 210.538H346.296V236.846H349.296H352.296V210.538H349.296ZM349.296 236.846V233.846H322.988V236.846V239.846H349.296V236.846ZM322.988 236.846H325.988V210.538H322.988H319.988V236.846H322.988ZM375.603 263.154V266.154H401.911V263.154V260.154H375.603V263.154ZM401.911 263.154H398.911V289.462H401.911H404.911V263.154H401.911ZM401.911 289.462V286.462H375.603V289.462V292.462H401.911V289.462ZM375.603 289.462H378.603V263.154H375.603H372.603V289.462H375.603ZM401.911 263.154V266.154H428.219V263.154V260.154H401.911V263.154ZM428.219 263.154H425.219V289.462H428.219H431.219V263.154H428.219ZM428.219 289.462V286.462H401.911V289.462V292.462H428.219V289.462ZM401.911 289.462H404.911V263.154H401.911H398.911V289.462H401.911ZM375.603 289.462V292.462H401.911V289.462V286.462H375.603V289.462ZM401.911 289.462H398.911V315.769H401.911H404.911V289.462H401.911ZM401.911 315.769V312.769H375.603V315.769V318.769H401.911V315.769ZM375.603 315.769H378.603V289.462H375.603H372.603V315.769H375.603ZM375.603 315.769V318.769H401.911V315.769V312.769H375.603V315.769ZM401.911 315.769H398.911V342.077H401.911H404.911V315.769H401.911ZM401.911 342.077V339.077H375.603V342.077V345.077H401.911V342.077ZM375.603 342.077H378.603V315.769H375.603H372.603V342.077H375.603ZM349.296 315.769V318.769H375.603V315.769V312.769H349.296V315.769ZM375.603 315.769H372.603V342.077H375.603H378.603V315.769H375.603ZM375.603 342.077V339.077H349.296V342.077V345.077H375.603V342.077ZM349.296 342.077H352.296V315.769H349.296H346.296V342.077H349.296ZM401.911 184.231V187.231H428.219V184.231V181.231H401.911V184.231ZM428.219 184.231H425.219V210.538H428.219H431.219V184.231H428.219ZM428.219 210.538V207.538H401.911V210.538V213.538H428.219V210.538ZM401.911 210.538H404.911V184.231H401.911H398.911V210.538H401.911ZM428.219 210.538V213.538H454.527V210.538V207.538H428.219V210.538ZM454.527 210.538H451.527V236.846H454.527H457.527V210.538H454.527ZM454.527 236.846V233.846H428.219V236.846V239.846H454.527V236.846ZM428.219 236.846H431.219V210.538H428.219H425.219V236.846H428.219ZM428.219 263.154V266.154H454.527V263.154V260.154H428.219V263.154ZM454.527 263.154H451.527V289.462H454.527H457.527V263.154H454.527ZM454.527 289.462V286.462H428.219V289.462V292.462H454.527V289.462ZM428.219 289.462H431.219V263.154H428.219H425.219V289.462H428.219ZM519.795 184.231V181.231H516.795V184.231H519.795ZM546.103 184.231H549.103V181.231H546.103V184.231ZM546.103 210.538V213.538H549.103V210.538H546.103ZM519.795 210.538H516.795V213.538H519.795V210.538ZM546.103 184.231V181.231H543.103V184.231H546.103ZM572.411 184.231H575.411V181.231H572.411V184.231ZM572.411 210.538V213.538H575.411V210.538H572.411ZM546.103 210.538H543.103V213.538H546.103V210.538ZM546.103 210.538V207.538H543.103V210.538H546.103ZM572.411 210.538H575.411V207.538H572.411V210.538ZM572.411 236.846V239.846H575.411V236.846H572.411ZM546.103 236.846H543.103V239.846H546.103V236.846ZM546.103 236.846V233.846H543.103V236.846H546.103ZM572.411 236.846H575.411V233.846H572.411V236.846ZM572.411 263.154V266.154H575.411V263.154H572.411ZM546.103 263.154H543.103V266.154H546.103V263.154ZM546.103 263.154V260.154H543.103V263.154H546.103ZM572.411 263.154H575.411V260.154H572.411V263.154ZM572.411 289.462V292.462H575.411V289.462H572.411ZM546.103 289.462H543.103V292.462H546.103V289.462ZM546.103 289.462V286.462H543.103V289.462H546.103ZM572.411 289.462H575.411V286.462H572.411V289.462ZM572.411 315.769V318.769H575.411V315.769H572.411ZM546.103 315.769H543.103V318.769H546.103V315.769ZM546.103 315.769V312.769H543.103V315.769H546.103ZM572.411 315.769H575.411V312.769H572.411V315.769ZM572.411 342.077V345.077H575.411V342.077H572.411ZM546.103 342.077H543.103V345.077H546.103V342.077ZM519.795 368.385V365.385H516.795V368.385H519.795ZM546.103 368.385H549.103V365.385H546.103V368.385ZM546.103 394.692V397.692H549.103V394.692H546.103ZM519.795 394.692H516.795V397.692H519.795V394.692ZM572.411 394.692V391.692H569.411V394.692H572.411ZM598.718 394.692H601.718V391.692H598.718V394.692ZM598.718 421V424H601.718V421H598.718ZM572.411 421H569.411V424H572.411V421ZM546.103 394.692V391.692H543.103V394.692H546.103ZM572.411 394.692H575.411V391.692H572.411V394.692ZM572.411 421V424H575.411V421H572.411ZM546.103 421H543.103V424H546.103V421ZM598.718 368.385V365.385H595.718V368.385H598.718ZM625.026 368.385H628.026V365.385H625.026V368.385ZM625.026 394.692V397.692H628.026V394.692H625.026ZM598.718 394.692H595.718V397.692H598.718V394.692ZM625.026 342.077V339.077H622.026V342.077H625.026ZM651.334 342.077H654.334V339.077H651.334V342.077ZM651.334 368.385V371.385H654.334V368.385H651.334ZM625.026 368.385H622.026V371.385H625.026V368.385ZM651.334 315.769V312.769H648.334V315.769H651.334ZM677.641 315.769H680.641V312.769H677.641V315.769ZM677.641 342.077V345.077H680.641V342.077H677.641ZM651.334 342.077H648.334V345.077H651.334V342.077ZM651.334 342.077V339.077H648.334V342.077H651.334ZM677.641 342.077H680.641V339.077H677.641V342.077ZM677.641 368.385V371.385H680.641V368.385H677.641ZM651.334 368.385H648.334V371.385H651.334V368.385ZM651.334 368.385V365.385H648.334V368.385H651.334ZM677.641 368.385H680.641V365.385H677.641V368.385ZM677.641 394.692V397.692H680.641V394.692H677.641ZM651.334 394.692H648.334V397.692H651.334V394.692ZM677.641 394.692V391.692H674.641V394.692H677.641ZM703.949 394.692H706.949V391.692H703.949V394.692ZM703.949 421V424H706.949V421H703.949ZM677.641 421H674.641V424H677.641V421ZM651.334 289.462V286.462H648.334V289.462H651.334ZM677.641 289.462H680.641V286.462H677.641V289.462ZM677.641 315.769V318.769H680.641V315.769H677.641ZM651.334 315.769H648.334V318.769H651.334V315.769ZM651.334 263.154V260.154H648.334V263.154H651.334ZM677.641 263.154H680.641V260.154H677.641V263.154ZM677.641 289.462V292.462H680.641V289.462H677.641ZM651.334 289.462H648.334V292.462H651.334V289.462ZM651.334 236.846V233.846H648.334V236.846H651.334ZM677.641 236.846H680.641V233.846H677.641V236.846ZM677.641 263.154V266.154H680.641V263.154H677.641ZM651.334 263.154H648.334V266.154H651.334V263.154ZM651.334 210.538V207.538H648.334V210.538H651.334ZM677.641 210.538H680.641V207.538H677.641V210.538ZM677.641 236.846V239.846H680.641V236.846H677.641ZM651.334 236.846H648.334V239.846H651.334V236.846ZM651.334 184.231V181.231H648.334V184.231H651.334ZM677.641 184.231H680.641V181.231H677.641V184.231ZM677.641 210.538V213.538H680.641V210.538H677.641ZM651.334 210.538H648.334V213.538H651.334V210.538ZM625.026 184.231V181.231H622.026V184.231H625.026ZM651.334 184.231H654.334V181.231H651.334V184.231ZM651.334 210.538V213.538H654.334V210.538H651.334ZM625.026 210.538H622.026V213.538H625.026V210.538ZM519.795 342.077V339.077H516.795V342.077H519.795ZM546.103 342.077H549.103V339.077H546.103V342.077ZM546.103 368.385V371.385H549.103V368.385H546.103ZM519.795 368.385H516.795V371.385H519.795V368.385ZM519.795 184.231V187.231H546.103V184.231V181.231H519.795V184.231ZM546.103 184.231H543.103V210.538H546.103H549.103V184.231H546.103ZM546.103 210.538V207.538H519.795V210.538V213.538H546.103V210.538ZM519.795 210.538H522.795V184.231H519.795H516.795V210.538H519.795ZM546.103 184.231V187.231H572.411V184.231V181.231H546.103V184.231ZM572.411 184.231H569.411V210.538H572.411H575.411V184.231H572.411ZM572.411 210.538V207.538H546.103V210.538V213.538H572.411V210.538ZM546.103 210.538H549.103V184.231H546.103H543.103V210.538H546.103ZM546.103 210.538V213.538H572.411V210.538V207.538H546.103V210.538ZM572.411 210.538H569.411V236.846H572.411H575.411V210.538H572.411ZM572.411 236.846V233.846H546.103V236.846V239.846H572.411V236.846ZM546.103 236.846H549.103V210.538H546.103H543.103V236.846H546.103ZM546.103 236.846V239.846H572.411V236.846V233.846H546.103V236.846ZM572.411 236.846H569.411V263.154H572.411H575.411V236.846H572.411ZM572.411 263.154V260.154H546.103V263.154V266.154H572.411V263.154ZM546.103 263.154H549.103V236.846H546.103H543.103V263.154H546.103ZM546.103 263.154V266.154H572.411V263.154V260.154H546.103V263.154ZM572.411 263.154H569.411V289.462H572.411H575.411V263.154H572.411ZM572.411 289.462V286.462H546.103V289.462V292.462H572.411V289.462ZM546.103 289.462H549.103V263.154H546.103H543.103V289.462H546.103ZM546.103 289.462V292.462H572.411V289.462V286.462H546.103V289.462ZM572.411 289.462H569.411V315.769H572.411H575.411V289.462H572.411ZM572.411 315.769V312.769H546.103V315.769V318.769H572.411V315.769ZM546.103 315.769H549.103V289.462H546.103H543.103V315.769H546.103ZM546.103 315.769V318.769H572.411V315.769V312.769H546.103V315.769ZM572.411 315.769H569.411V342.077H572.411H575.411V315.769H572.411ZM572.411 342.077V339.077H546.103V342.077V345.077H572.411V342.077ZM546.103 342.077H549.103V315.769H546.103H543.103V342.077H546.103ZM519.795 368.385V371.385H546.103V368.385V365.385H519.795V368.385ZM546.103 368.385H543.103V394.692H546.103H549.103V368.385H546.103ZM546.103 394.692V391.692H519.795V394.692V397.692H546.103V394.692ZM519.795 394.692H522.795V368.385H519.795H516.795V394.692H519.795ZM572.411 394.692V397.692H598.718V394.692V391.692H572.411V394.692ZM598.718 394.692H595.718V421H598.718H601.718V394.692H598.718ZM598.718 421V418H572.411V421V424H598.718V421ZM572.411 421H575.411V394.692H572.411H569.411V421H572.411ZM546.103 394.692V397.692H572.411V394.692V391.692H546.103V394.692ZM572.411 394.692H569.411V421H572.411H575.411V394.692H572.411ZM572.411 421V418H546.103V421V424H572.411V421ZM546.103 421H549.103V394.692H546.103H543.103V421H546.103ZM598.718 368.385V371.385H625.026V368.385V365.385H598.718V368.385ZM625.026 368.385H622.026V394.692H625.026H628.026V368.385H625.026ZM625.026 394.692V391.692H598.718V394.692V397.692H625.026V394.692ZM598.718 394.692H601.718V368.385H598.718H595.718V394.692H598.718ZM625.026 342.077V345.077H651.334V342.077V339.077H625.026V342.077ZM651.334 342.077H648.334V368.385H651.334H654.334V342.077H651.334ZM651.334 368.385V365.385H625.026V368.385V371.385H651.334V368.385ZM625.026 368.385H628.026V342.077H625.026H622.026V368.385H625.026ZM651.334 315.769V318.769H677.641V315.769V312.769H651.334V315.769ZM677.641 315.769H674.641V342.077H677.641H680.641V315.769H677.641ZM677.641 342.077V339.077H651.334V342.077V345.077H677.641V342.077ZM651.334 342.077H654.334V315.769H651.334H648.334V342.077H651.334ZM651.334 342.077V345.077H677.641V342.077V339.077H651.334V342.077ZM677.641 342.077H674.641V368.385H677.641H680.641V342.077H677.641ZM677.641 368.385V365.385H651.334V368.385V371.385H677.641V368.385ZM651.334 368.385H654.334V342.077H651.334H648.334V368.385H651.334ZM651.334 368.385V371.385H677.641V368.385V365.385H651.334V368.385ZM677.641 368.385H674.641V394.692H677.641H680.641V368.385H677.641ZM677.641 394.692V391.692H651.334V394.692V397.692H677.641V394.692ZM651.334 394.692H654.334V368.385H651.334H648.334V394.692H651.334ZM677.641 394.692V397.692H703.949V394.692V391.692H677.641V394.692ZM703.949 394.692H700.949V421H703.949H706.949V394.692H703.949ZM703.949 421V418H677.641V421V424H703.949V421ZM677.641 421H680.641V394.692H677.641H674.641V421H677.641ZM651.334 289.462V292.462H677.641V289.462V286.462H651.334V289.462ZM677.641 289.462H674.641V315.769H677.641H680.641V289.462H677.641ZM677.641 315.769V312.769H651.334V315.769V318.769H677.641V315.769ZM651.334 315.769H654.334V289.462H651.334H648.334V315.769H651.334ZM651.334 263.154V266.154H677.641V263.154V260.154H651.334V263.154ZM677.641 263.154H674.641V289.462H677.641H680.641V263.154H677.641ZM677.641 289.462V286.462H651.334V289.462V292.462H677.641V289.462ZM651.334 289.462H654.334V263.154H651.334H648.334V289.462H651.334ZM651.334 236.846V239.846H677.641V236.846V233.846H651.334V236.846ZM677.641 236.846H674.641V263.154H677.641H680.641V236.846H677.641ZM677.641 263.154V260.154H651.334V263.154V266.154H677.641V263.154ZM651.334 263.154H654.334V236.846H651.334H648.334V263.154H651.334ZM651.334 210.538V213.538H677.641V210.538V207.538H651.334V210.538ZM677.641 210.538H674.641V236.846H677.641H680.641V210.538H677.641ZM677.641 236.846V233.846H651.334V236.846V239.846H677.641V236.846ZM651.334 236.846H654.334V210.538H651.334H648.334V236.846H651.334ZM651.334 184.231V187.231H677.641V184.231V181.231H651.334V184.231ZM677.641 184.231H674.641V210.538H677.641H680.641V184.231H677.641ZM677.641 210.538V207.538H651.334V210.538V213.538H677.641V210.538ZM651.334 210.538H654.334V184.231H651.334H648.334V210.538H651.334ZM625.026 184.231V187.231H651.334V184.231V181.231H625.026V184.231ZM651.334 184.231H648.334V210.538H651.334H654.334V184.231H651.334ZM651.334 210.538V207.538H625.026V210.538V213.538H651.334V210.538ZM625.026 210.538H628.026V184.231H625.026H622.026V210.538H625.026ZM519.795 342.077V345.077H546.103V342.077V339.077H519.795V342.077ZM546.103 342.077H543.103V368.385H546.103H549.103V342.077H546.103ZM546.103 368.385V365.385H519.795V368.385V371.385H546.103V368.385ZM519.795 368.385H522.795V342.077H519.795H516.795V368.385H519.795ZM716.525 236.846V233.846H713.525V236.846H716.525ZM742.833 236.846H745.833V233.846H742.833V236.846ZM742.833 263.154V266.154H745.833V263.154H742.833ZM716.525 263.154H713.525V266.154H716.525V263.154ZM716.525 263.154V260.154H713.525V263.154H716.525ZM742.833 263.154H745.833V260.154H742.833V263.154ZM742.833 289.462V292.462H745.833V289.462H742.833ZM716.525 289.462H713.525V292.462H716.525V289.462ZM716.525 289.462V286.462H713.525V289.462H716.525ZM742.833 289.462H745.833V286.462H742.833V289.462ZM742.833 315.769V318.769H745.833V315.769H742.833ZM716.525 315.769H713.525V318.769H716.525V315.769ZM716.525 315.769V312.769H713.525V315.769H716.525ZM742.833 315.769H745.833V312.769H742.833V315.769ZM742.833 342.077V345.077H745.833V342.077H742.833ZM716.525 342.077H713.525V345.077H716.525V342.077ZM742.833 342.077V339.077H739.833V342.077H742.833ZM769.141 342.077H772.141V339.077H769.141V342.077ZM769.141 368.385V371.385H772.141V368.385H769.141ZM742.833 368.385H739.833V371.385H742.833V368.385ZM742.833 368.385V365.385H739.833V368.385H742.833ZM769.141 368.385H772.141V365.385H769.141V368.385ZM769.141 394.692V397.692H772.141V394.692H769.141ZM742.833 394.692H739.833V397.692H742.833V394.692ZM769.141 368.385V365.385H766.141V368.385H769.141ZM795.449 368.385H798.449V365.385H795.449V368.385ZM795.449 394.692V397.692H798.449V394.692H795.449ZM769.141 394.692H766.141V397.692H769.141V394.692ZM795.449 394.692V391.692H792.449V394.692H795.449ZM821.756 394.692H824.756V391.692H821.756V394.692ZM821.756 421V424H824.756V421H821.756ZM795.449 421H792.449V424H795.449V421ZM821.756 394.692V391.692H818.756V394.692H821.756ZM848.064 394.692H851.064V391.692H848.064V394.692ZM848.064 421V424H851.064V421H848.064ZM821.756 421H818.756V424H821.756V421ZM848.064 394.692V391.692H845.064V394.692H848.064ZM874.372 394.692H877.372V391.692H874.372V394.692ZM874.372 421V424H877.372V421H874.372ZM848.064 421H845.064V424H848.064V421ZM874.372 394.692V391.692H871.372V394.692H874.372ZM900.679 394.692H903.679V391.692H900.679V394.692ZM900.679 421V424H903.679V421H900.679ZM874.372 421H871.372V424H874.372V421ZM900.679 368.385V365.385H897.679V368.385H900.679ZM926.987 368.385H929.987V365.385H926.987V368.385ZM926.987 394.692V397.692H929.987V394.692H926.987ZM900.679 394.692H897.679V397.692H900.679V394.692ZM926.987 342.077V339.077H923.987V342.077H926.987ZM953.295 342.077H956.295V339.077H953.295V342.077ZM953.295 368.385V371.385H956.295V368.385H953.295ZM926.987 368.385H923.987V371.385H926.987V368.385ZM926.987 315.769V312.769H923.987V315.769H926.987ZM953.295 315.769H956.295V312.769H953.295V315.769ZM953.295 342.077V345.077H956.295V342.077H953.295ZM926.987 342.077H923.987V345.077H926.987V342.077ZM926.987 289.462V286.462H923.987V289.462H926.987ZM953.295 289.462H956.295V286.462H953.295V289.462ZM953.295 315.769V318.769H956.295V315.769H953.295ZM926.987 315.769H923.987V318.769H926.987V315.769ZM900.679 263.154V260.154H897.679V263.154H900.679ZM926.987 263.154H929.987V260.154H926.987V263.154ZM926.987 289.462V292.462H929.987V289.462H926.987ZM900.679 289.462H897.679V292.462H900.679V289.462ZM874.372 263.154V260.154H871.372V263.154H874.372ZM900.679 263.154H903.679V260.154H900.679V263.154ZM900.679 289.462V292.462H903.679V289.462H900.679ZM874.372 289.462H871.372V292.462H874.372V289.462ZM848.064 289.462V286.462H845.064V289.462H848.064ZM874.372 289.462H877.372V286.462H874.372V289.462ZM874.372 315.769V318.769H877.372V315.769H874.372ZM848.064 315.769H845.064V318.769H848.064V315.769ZM821.756 315.769V312.769H818.756V315.769H821.756ZM848.064 315.769H851.064V312.769H848.064V315.769ZM848.064 342.077V345.077H851.064V342.077H848.064ZM821.756 342.077H818.756V345.077H821.756V342.077ZM795.449 315.769V312.769H792.449V315.769H795.449ZM821.756 315.769H824.756V312.769H821.756V315.769ZM821.756 342.077V345.077H824.756V342.077H821.756ZM795.449 342.077H792.449V345.077H795.449V342.077ZM769.141 289.462V286.462H766.141V289.462H769.141ZM795.449 289.462H798.449V286.462H795.449V289.462ZM795.449 315.769V318.769H798.449V315.769H795.449ZM769.141 315.769H766.141V318.769H769.141V315.769ZM769.141 263.154V260.154H766.141V263.154H769.141ZM795.449 263.154H798.449V260.154H795.449V263.154ZM795.449 289.462V292.462H798.449V289.462H795.449ZM769.141 289.462H766.141V292.462H769.141V289.462ZM795.449 263.154V260.154H792.449V263.154H795.449ZM821.756 263.154H824.756V260.154H821.756V263.154ZM821.756 289.462V292.462H824.756V289.462H821.756ZM795.449 289.462H792.449V292.462H795.449V289.462ZM742.833 210.538V207.538H739.833V210.538H742.833ZM769.141 210.538H772.141V207.538H769.141V210.538ZM769.141 236.846V239.846H772.141V236.846H769.141ZM742.833 236.846H739.833V239.846H742.833V236.846ZM769.141 184.231V181.231H766.141V184.231H769.141ZM795.449 184.231H798.449V181.231H795.449V184.231ZM795.449 210.538V213.538H798.449V210.538H795.449ZM769.141 210.538H766.141V213.538H769.141V210.538ZM795.449 184.231V181.231H792.449V184.231H795.449ZM821.756 184.231H824.756V181.231H821.756V184.231ZM821.756 210.538V213.538H824.756V210.538H821.756ZM795.449 210.538H792.449V213.538H795.449V210.538ZM821.756 184.231V181.231H818.756V184.231H821.756ZM848.064 184.231H851.064V181.231H848.064V184.231ZM848.064 210.538V213.538H851.064V210.538H848.064ZM821.756 210.538H818.756V213.538H821.756V210.538ZM848.064 184.231V181.231H845.064V184.231H848.064ZM874.372 184.231H877.372V181.231H874.372V184.231ZM874.372 210.538V213.538H877.372V210.538H874.372ZM848.064 210.538H845.064V213.538H848.064V210.538ZM848.064 210.538V207.538H845.064V210.538H848.064ZM874.372 210.538H877.372V207.538H874.372V210.538ZM874.372 236.846V239.846H877.372V236.846H874.372ZM848.064 236.846H845.064V239.846H848.064V236.846ZM874.372 210.538V207.538H871.372V210.538H874.372ZM900.679 210.538H903.679V207.538H900.679V210.538ZM900.679 236.846V239.846H903.679V236.846H900.679ZM874.372 236.846H871.372V239.846H874.372V236.846ZM900.679 210.538V207.538H897.679V210.538H900.679ZM926.987 210.538H929.987V207.538H926.987V210.538ZM926.987 236.846V239.846H929.987V236.846H926.987ZM900.679 236.846H897.679V239.846H900.679V236.846ZM926.987 184.231V181.231H923.987V184.231H926.987ZM953.295 184.231H956.295V181.231H953.295V184.231ZM953.295 210.538V213.538H956.295V210.538H953.295ZM926.987 210.538H923.987V213.538H926.987V210.538ZM716.525 236.846V239.846H742.833V236.846V233.846H716.525V236.846ZM742.833 236.846H739.833V263.154H742.833H745.833V236.846H742.833ZM742.833 263.154V260.154H716.525V263.154V266.154H742.833V263.154ZM716.525 263.154H719.525V236.846H716.525H713.525V263.154H716.525ZM716.525 263.154V266.154H742.833V263.154V260.154H716.525V263.154ZM742.833 263.154H739.833V289.462H742.833H745.833V263.154H742.833ZM742.833 289.462V286.462H716.525V289.462V292.462H742.833V289.462ZM716.525 289.462H719.525V263.154H716.525H713.525V289.462H716.525ZM716.525 289.462V292.462H742.833V289.462V286.462H716.525V289.462ZM742.833 289.462H739.833V315.769H742.833H745.833V289.462H742.833ZM742.833 315.769V312.769H716.525V315.769V318.769H742.833V315.769ZM716.525 315.769H719.525V289.462H716.525H713.525V315.769H716.525ZM716.525 315.769V318.769H742.833V315.769V312.769H716.525V315.769ZM742.833 315.769H739.833V342.077H742.833H745.833V315.769H742.833ZM742.833 342.077V339.077H716.525V342.077V345.077H742.833V342.077ZM716.525 342.077H719.525V315.769H716.525H713.525V342.077H716.525ZM742.833 342.077V345.077H769.141V342.077V339.077H742.833V342.077ZM769.141 342.077H766.141V368.385H769.141H772.141V342.077H769.141ZM769.141 368.385V365.385H742.833V368.385V371.385H769.141V368.385ZM742.833 368.385H745.833V342.077H742.833H739.833V368.385H742.833ZM742.833 368.385V371.385H769.141V368.385V365.385H742.833V368.385ZM769.141 368.385H766.141V394.692H769.141H772.141V368.385H769.141ZM769.141 394.692V391.692H742.833V394.692V397.692H769.141V394.692ZM742.833 394.692H745.833V368.385H742.833H739.833V394.692H742.833ZM769.141 368.385V371.385H795.449V368.385V365.385H769.141V368.385ZM795.449 368.385H792.449V394.692H795.449H798.449V368.385H795.449ZM795.449 394.692V391.692H769.141V394.692V397.692H795.449V394.692ZM769.141 394.692H772.141V368.385H769.141H766.141V394.692H769.141ZM795.449 394.692V397.692H821.756V394.692V391.692H795.449V394.692ZM821.756 394.692H818.756V421H821.756H824.756V394.692H821.756ZM821.756 421V418H795.449V421V424H821.756V421ZM795.449 421H798.449V394.692H795.449H792.449V421H795.449ZM821.756 394.692V397.692H848.064V394.692V391.692H821.756V394.692ZM848.064 394.692H845.064V421H848.064H851.064V394.692H848.064ZM848.064 421V418H821.756V421V424H848.064V421ZM821.756 421H824.756V394.692H821.756H818.756V421H821.756ZM848.064 394.692V397.692H874.372V394.692V391.692H848.064V394.692ZM874.372 394.692H871.372V421H874.372H877.372V394.692H874.372ZM874.372 421V418H848.064V421V424H874.372V421ZM848.064 421H851.064V394.692H848.064H845.064V421H848.064ZM874.372 394.692V397.692H900.679V394.692V391.692H874.372V394.692ZM900.679 394.692H897.679V421H900.679H903.679V394.692H900.679ZM900.679 421V418H874.372V421V424H900.679V421ZM874.372 421H877.372V394.692H874.372H871.372V421H874.372ZM900.679 368.385V371.385H926.987V368.385V365.385H900.679V368.385ZM926.987 368.385H923.987V394.692H926.987H929.987V368.385H926.987ZM926.987 394.692V391.692H900.679V394.692V397.692H926.987V394.692ZM900.679 394.692H903.679V368.385H900.679H897.679V394.692H900.679ZM926.987 342.077V345.077H953.295V342.077V339.077H926.987V342.077ZM953.295 342.077H950.295V368.385H953.295H956.295V342.077H953.295ZM953.295 368.385V365.385H926.987V368.385V371.385H953.295V368.385ZM926.987 368.385H929.987V342.077H926.987H923.987V368.385H926.987ZM926.987 315.769V318.769H953.295V315.769V312.769H926.987V315.769ZM953.295 315.769H950.295V342.077H953.295H956.295V315.769H953.295ZM953.295 342.077V339.077H926.987V342.077V345.077H953.295V342.077ZM926.987 342.077H929.987V315.769H926.987H923.987V342.077H926.987ZM926.987 289.462V292.462H953.295V289.462V286.462H926.987V289.462ZM953.295 289.462H950.295V315.769H953.295H956.295V289.462H953.295ZM953.295 315.769V312.769H926.987V315.769V318.769H953.295V315.769ZM926.987 315.769H929.987V289.462H926.987H923.987V315.769H926.987ZM900.679 263.154V266.154H926.987V263.154V260.154H900.679V263.154ZM926.987 263.154H923.987V289.462H926.987H929.987V263.154H926.987ZM926.987 289.462V286.462H900.679V289.462V292.462H926.987V289.462ZM900.679 289.462H903.679V263.154H900.679H897.679V289.462H900.679ZM874.372 263.154V266.154H900.679V263.154V260.154H874.372V263.154ZM900.679 263.154H897.679V289.462H900.679H903.679V263.154H900.679ZM900.679 289.462V286.462H874.372V289.462V292.462H900.679V289.462ZM874.372 289.462H877.372V263.154H874.372H871.372V289.462H874.372ZM848.064 289.462V292.462H874.372V289.462V286.462H848.064V289.462ZM874.372 289.462H871.372V315.769H874.372H877.372V289.462H874.372ZM874.372 315.769V312.769H848.064V315.769V318.769H874.372V315.769ZM848.064 315.769H851.064V289.462H848.064H845.064V315.769H848.064ZM821.756 315.769V318.769H848.064V315.769V312.769H821.756V315.769ZM848.064 315.769H845.064V342.077H848.064H851.064V315.769H848.064ZM848.064 342.077V339.077H821.756V342.077V345.077H848.064V342.077ZM821.756 342.077H824.756V315.769H821.756H818.756V342.077H821.756ZM795.449 315.769V318.769H821.756V315.769V312.769H795.449V315.769ZM821.756 315.769H818.756V342.077H821.756H824.756V315.769H821.756ZM821.756 342.077V339.077H795.449V342.077V345.077H821.756V342.077ZM795.449 342.077H798.449V315.769H795.449H792.449V342.077H795.449ZM769.141 289.462V292.462H795.449V289.462V286.462H769.141V289.462ZM795.449 289.462H792.449V315.769H795.449H798.449V289.462H795.449ZM795.449 315.769V312.769H769.141V315.769V318.769H795.449V315.769ZM769.141 315.769H772.141V289.462H769.141H766.141V315.769H769.141ZM769.141 263.154V266.154H795.449V263.154V260.154H769.141V263.154ZM795.449 263.154H792.449V289.462H795.449H798.449V263.154H795.449ZM795.449 289.462V286.462H769.141V289.462V292.462H795.449V289.462ZM769.141 289.462H772.141V263.154H769.141H766.141V289.462H769.141ZM795.449 263.154V266.154H821.756V263.154V260.154H795.449V263.154ZM821.756 263.154H818.756V289.462H821.756H824.756V263.154H821.756ZM821.756 289.462V286.462H795.449V289.462V292.462H821.756V289.462ZM795.449 289.462H798.449V263.154H795.449H792.449V289.462H795.449ZM742.833 210.538V213.538H769.141V210.538V207.538H742.833V210.538ZM769.141 210.538H766.141V236.846H769.141H772.141V210.538H769.141ZM769.141 236.846V233.846H742.833V236.846V239.846H769.141V236.846ZM742.833 236.846H745.833V210.538H742.833H739.833V236.846H742.833ZM769.141 184.231V187.231H795.449V184.231V181.231H769.141V184.231ZM795.449 184.231H792.449V210.538H795.449H798.449V184.231H795.449ZM795.449 210.538V207.538H769.141V210.538V213.538H795.449V210.538ZM769.141 210.538H772.141V184.231H769.141H766.141V210.538H769.141ZM795.449 184.231V187.231H821.756V184.231V181.231H795.449V184.231ZM821.756 184.231H818.756V210.538H821.756H824.756V184.231H821.756ZM821.756 210.538V207.538H795.449V210.538V213.538H821.756V210.538ZM795.449 210.538H798.449V184.231H795.449H792.449V210.538H795.449ZM821.756 184.231V187.231H848.064V184.231V181.231H821.756V184.231ZM848.064 184.231H845.064V210.538H848.064H851.064V184.231H848.064ZM848.064 210.538V207.538H821.756V210.538V213.538H848.064V210.538ZM821.756 210.538H824.756V184.231H821.756H818.756V210.538H821.756ZM848.064 184.231V187.231H874.372V184.231V181.231H848.064V184.231ZM874.372 184.231H871.372V210.538H874.372H877.372V184.231H874.372ZM874.372 210.538V207.538H848.064V210.538V213.538H874.372V210.538ZM848.064 210.538H851.064V184.231H848.064H845.064V210.538H848.064ZM848.064 210.538V213.538H874.372V210.538V207.538H848.064V210.538ZM874.372 210.538H871.372V236.846H874.372H877.372V210.538H874.372ZM874.372 236.846V233.846H848.064V236.846V239.846H874.372V236.846ZM848.064 236.846H851.064V210.538H848.064H845.064V236.846H848.064ZM874.372 210.538V213.538H900.679V210.538V207.538H874.372V210.538ZM900.679 210.538H897.679V236.846H900.679H903.679V210.538H900.679ZM900.679 236.846V233.846H874.372V236.846V239.846H900.679V236.846ZM874.372 236.846H877.372V210.538H874.372H871.372V236.846H874.372ZM900.679 210.538V213.538H926.987V210.538V207.538H900.679V210.538ZM926.987 210.538H923.987V236.846H926.987H929.987V210.538H926.987ZM926.987 236.846V233.846H900.679V236.846V239.846H926.987V236.846ZM900.679 236.846H903.679V210.538H900.679H897.679V236.846H900.679ZM926.987 184.231V187.231H953.295V184.231V181.231H926.987V184.231ZM953.295 184.231H950.295V210.538H953.295H956.295V184.231H953.295ZM953.295 210.538V207.538H926.987V210.538V213.538H953.295V210.538ZM926.987 210.538H929.987V184.231H926.987H923.987V210.538H926.987ZM966.025 263.154V260.154H963.025V263.154H966.025ZM992.333 263.154H995.333V260.154H992.333V263.154ZM992.333 289.462V292.462H995.333V289.462H992.333ZM966.025 289.462H963.025V292.462H966.025V289.462ZM966.025 236.846V233.846H963.025V236.846H966.025ZM992.333 236.846H995.333V233.846H992.333V236.846ZM992.333 263.154V266.154H995.333V263.154H992.333ZM966.025 263.154H963.025V266.154H966.025V263.154ZM966.025 210.538V207.538H963.025V210.538H966.025ZM992.333 210.538H995.333V207.538H992.333V210.538ZM992.333 236.846V239.846H995.333V236.846H992.333ZM966.025 236.846H963.025V239.846H966.025V236.846ZM992.333 184.231V181.231H989.333V184.231H992.333ZM1018.64 184.231H1021.64V181.231H1018.64V184.231ZM1018.64 210.538V213.538H1021.64V210.538H1018.64ZM992.333 210.538H989.333V213.538H992.333V210.538ZM1018.64 184.231V181.231H1015.64V184.231H1018.64ZM1044.95 184.231H1047.95V181.231H1044.95V184.231ZM1044.95 210.538V213.538H1047.95V210.538H1044.95ZM1018.64 210.538H1015.64V213.538H1018.64V210.538ZM1044.95 184.231V181.231H1041.95V184.231H1044.95ZM1071.26 184.231H1074.26V181.231H1071.26V184.231ZM1071.26 210.538V213.538H1074.26V210.538H1071.26ZM1044.95 210.538H1041.95V213.538H1044.95V210.538ZM1071.26 210.538V207.538H1068.26V210.538H1071.26ZM1097.56 210.538H1100.56V207.538H1097.56V210.538ZM1097.56 236.846V239.846H1100.56V236.846H1097.56ZM1071.26 236.846H1068.26V239.846H1071.26V236.846ZM1150.18 210.538V207.538H1147.18V210.538H1150.18ZM1176.49 210.538H1179.49V207.538H1176.49V210.538ZM1176.49 236.846V239.846H1179.49V236.846H1176.49ZM1150.18 236.846H1147.18V239.846H1150.18V236.846ZM1150.18 184.231V181.231H1147.18V184.231H1150.18ZM1176.49 184.231H1179.49V181.231H1176.49V184.231ZM1176.49 210.538V213.538H1179.49V210.538H1176.49ZM1150.18 210.538H1147.18V213.538H1150.18V210.538ZM1123.87 184.231V181.231H1120.87V184.231H1123.87ZM1150.18 184.231H1153.18V181.231H1150.18V184.231ZM1150.18 210.538V213.538H1153.18V210.538H1150.18ZM1123.87 210.538H1120.87V213.538H1123.87V210.538ZM992.333 289.462V286.462H989.333V289.462H992.333ZM1018.64 289.462H1021.64V286.462H1018.64V289.462ZM1018.64 315.769V318.769H1021.64V315.769H1018.64ZM992.333 315.769H989.333V318.769H992.333V315.769ZM1123.87 368.385V365.385H1120.87V368.385H1123.87ZM1150.18 368.385H1153.18V365.385H1150.18V368.385ZM1150.18 394.692V397.692H1153.18V394.692H1150.18ZM1123.87 394.692H1120.87V397.692H1123.87V394.692ZM1150.18 394.692V391.692H1147.18V394.692H1150.18ZM1176.49 394.692H1179.49V391.692H1176.49V394.692ZM1176.49 421V424H1179.49V421H1176.49ZM1150.18 421H1147.18V424H1150.18V421ZM1150.18 421V418H1147.18V421H1150.18ZM1176.49 421H1179.49V418H1176.49V421ZM1176.49 447.308V450.308H1179.49V447.308H1176.49ZM1150.18 447.308H1147.18V450.308H1150.18V447.308ZM1150.18 447.308V444.308H1147.18V447.308H1150.18ZM1176.49 447.308H1179.49V444.308H1176.49V447.308ZM1176.49 473.615V476.615H1179.49V473.615H1176.49ZM1150.18 473.615H1147.18V476.615H1150.18V473.615ZM1123.87 473.615V470.615H1120.87V473.615H1123.87ZM1150.18 473.615H1153.18V470.615H1150.18V473.615ZM1150.18 499.923V502.923H1153.18V499.923H1150.18ZM1123.87 499.923H1120.87V502.923H1123.87V499.923ZM1097.56 473.615V470.615H1094.56V473.615H1097.56ZM1123.87 473.615H1126.87V470.615H1123.87V473.615ZM1123.87 499.923V502.923H1126.87V499.923H1123.87ZM1097.56 499.923H1094.56V502.923H1097.56V499.923ZM1071.26 473.615V470.615H1068.26V473.615H1071.26ZM1097.56 473.615H1100.56V470.615H1097.56V473.615ZM1097.56 499.923V502.923H1100.56V499.923H1097.56ZM1071.26 499.923H1068.26V502.923H1071.26V499.923ZM1044.95 473.615V470.615H1041.95V473.615H1044.95ZM1071.26 473.615H1074.26V470.615H1071.26V473.615ZM1071.26 499.923V502.923H1074.26V499.923H1071.26ZM1044.95 499.923H1041.95V502.923H1044.95V499.923ZM1018.64 447.308V444.308H1015.64V447.308H1018.64ZM1044.95 447.308H1047.95V444.308H1044.95V447.308ZM1044.95 473.615V476.615H1047.95V473.615H1044.95ZM1018.64 473.615H1015.64V476.615H1018.64V473.615ZM1018.64 421V418H1015.64V421H1018.64ZM1044.95 421H1047.95V418H1044.95V421ZM1044.95 447.308V450.308H1047.95V447.308H1044.95ZM1018.64 447.308H1015.64V450.308H1018.64V447.308ZM992.333 394.692V391.692H989.333V394.692H992.333ZM1018.64 394.692H1021.64V391.692H1018.64V394.692ZM1018.64 421V424H1021.64V421H1018.64ZM992.333 421H989.333V424H992.333V421ZM966.025 394.692V391.692H963.025V394.692H966.025ZM992.333 394.692H995.333V391.692H992.333V394.692ZM992.333 421V424H995.333V421H992.333ZM966.025 421H963.025V424H966.025V421ZM966.025 421V418H963.025V421H966.025ZM992.333 421H995.333V418H992.333V421ZM992.333 447.308V450.308H995.333V447.308H992.333ZM966.025 447.308H963.025V450.308H966.025V447.308ZM1123.87 236.846V233.846H1120.87V236.846H1123.87ZM1150.18 236.846H1153.18V233.846H1150.18V236.846ZM1150.18 263.154V266.154H1153.18V263.154H1150.18ZM1123.87 263.154H1120.87V266.154H1123.87V263.154ZM1097.56 263.154V260.154H1094.56V263.154H1097.56ZM1123.87 263.154H1126.87V260.154H1123.87V263.154ZM1123.87 289.462V292.462H1126.87V289.462H1123.87ZM1097.56 289.462H1094.56V292.462H1097.56V289.462ZM1150.18 263.154V260.154H1147.18V263.154H1150.18ZM1176.49 263.154H1179.49V260.154H1176.49V263.154ZM1176.49 289.462V292.462H1179.49V289.462H1176.49ZM1150.18 289.462H1147.18V292.462H1150.18V289.462ZM1123.87 289.462V286.462H1120.87V289.462H1123.87ZM1150.18 289.462H1153.18V286.462H1150.18V289.462ZM1150.18 315.769V318.769H1153.18V315.769H1150.18ZM1123.87 315.769H1120.87V318.769H1123.87V315.769ZM1123.87 315.769V312.769H1120.87V315.769H1123.87ZM1150.18 315.769H1153.18V312.769H1150.18V315.769ZM1150.18 342.077V345.077H1153.18V342.077H1150.18ZM1123.87 342.077H1120.87V345.077H1123.87V342.077ZM1123.87 342.077V339.077H1120.87V342.077H1123.87ZM1150.18 342.077H1153.18V339.077H1150.18V342.077ZM1150.18 368.385V371.385H1153.18V368.385H1150.18ZM1123.87 368.385H1120.87V371.385H1123.87V368.385ZM1097.56 210.538V207.538H1094.56V210.538H1097.56ZM1123.87 210.538H1126.87V207.538H1123.87V210.538ZM1123.87 236.846V239.846H1126.87V236.846H1123.87ZM1097.56 236.846H1094.56V239.846H1097.56V236.846ZM1018.64 263.154V260.154H1015.64V263.154H1018.64ZM1044.95 263.154H1047.95V260.154H1044.95V263.154ZM1044.95 289.462V292.462H1047.95V289.462H1044.95ZM1018.64 289.462H1015.64V292.462H1018.64V289.462ZM966.025 263.154V266.154H992.333V263.154V260.154H966.025V263.154ZM992.333 263.154H989.333V289.462H992.333H995.333V263.154H992.333ZM992.333 289.462V286.462H966.025V289.462V292.462H992.333V289.462ZM966.025 289.462H969.025V263.154H966.025H963.025V289.462H966.025ZM966.025 236.846V239.846H992.333V236.846V233.846H966.025V236.846ZM992.333 236.846H989.333V263.154H992.333H995.333V236.846H992.333ZM992.333 263.154V260.154H966.025V263.154V266.154H992.333V263.154ZM966.025 263.154H969.025V236.846H966.025H963.025V263.154H966.025ZM966.025 210.538V213.538H992.333V210.538V207.538H966.025V210.538ZM992.333 210.538H989.333V236.846H992.333H995.333V210.538H992.333ZM992.333 236.846V233.846H966.025V236.846V239.846H992.333V236.846ZM966.025 236.846H969.025V210.538H966.025H963.025V236.846H966.025ZM992.333 184.231V187.231H1018.64V184.231V181.231H992.333V184.231ZM1018.64 184.231H1015.64V210.538H1018.64H1021.64V184.231H1018.64ZM1018.64 210.538V207.538H992.333V210.538V213.538H1018.64V210.538ZM992.333 210.538H995.333V184.231H992.333H989.333V210.538H992.333ZM1018.64 184.231V187.231H1044.95V184.231V181.231H1018.64V184.231ZM1044.95 184.231H1041.95V210.538H1044.95H1047.95V184.231H1044.95ZM1044.95 210.538V207.538H1018.64V210.538V213.538H1044.95V210.538ZM1018.64 210.538H1021.64V184.231H1018.64H1015.64V210.538H1018.64ZM1044.95 184.231V187.231H1071.26V184.231V181.231H1044.95V184.231ZM1071.26 184.231H1068.26V210.538H1071.26H1074.26V184.231H1071.26ZM1071.26 210.538V207.538H1044.95V210.538V213.538H1071.26V210.538ZM1044.95 210.538H1047.95V184.231H1044.95H1041.95V210.538H1044.95ZM1071.26 210.538V213.538H1097.56V210.538V207.538H1071.26V210.538ZM1097.56 210.538H1094.56V236.846H1097.56H1100.56V210.538H1097.56ZM1097.56 236.846V233.846H1071.26V236.846V239.846H1097.56V236.846ZM1071.26 236.846H1074.26V210.538H1071.26H1068.26V236.846H1071.26ZM1150.18 210.538V213.538H1176.49V210.538V207.538H1150.18V210.538ZM1176.49 210.538H1173.49V236.846H1176.49H1179.49V210.538H1176.49ZM1176.49 236.846V233.846H1150.18V236.846V239.846H1176.49V236.846ZM1150.18 236.846H1153.18V210.538H1150.18H1147.18V236.846H1150.18ZM1150.18 184.231V187.231H1176.49V184.231V181.231H1150.18V184.231ZM1176.49 184.231H1173.49V210.538H1176.49H1179.49V184.231H1176.49ZM1176.49 210.538V207.538H1150.18V210.538V213.538H1176.49V210.538ZM1150.18 210.538H1153.18V184.231H1150.18H1147.18V210.538H1150.18ZM1123.87 184.231V187.231H1150.18V184.231V181.231H1123.87V184.231ZM1150.18 184.231H1147.18V210.538H1150.18H1153.18V184.231H1150.18ZM1150.18 210.538V207.538H1123.87V210.538V213.538H1150.18V210.538ZM1123.87 210.538H1126.87V184.231H1123.87H1120.87V210.538H1123.87ZM992.333 289.462V292.462H1018.64V289.462V286.462H992.333V289.462ZM1018.64 289.462H1015.64V315.769H1018.64H1021.64V289.462H1018.64ZM1018.64 315.769V312.769H992.333V315.769V318.769H1018.64V315.769ZM992.333 315.769H995.333V289.462H992.333H989.333V315.769H992.333ZM1123.87 368.385V371.385H1150.18V368.385V365.385H1123.87V368.385ZM1150.18 368.385H1147.18V394.692H1150.18H1153.18V368.385H1150.18ZM1150.18 394.692V391.692H1123.87V394.692V397.692H1150.18V394.692ZM1123.87 394.692H1126.87V368.385H1123.87H1120.87V394.692H1123.87ZM1150.18 394.692V397.692H1176.49V394.692V391.692H1150.18V394.692ZM1176.49 394.692H1173.49V421H1176.49H1179.49V394.692H1176.49ZM1176.49 421V418H1150.18V421V424H1176.49V421ZM1150.18 421H1153.18V394.692H1150.18H1147.18V421H1150.18ZM1150.18 421V424H1176.49V421V418H1150.18V421ZM1176.49 421H1173.49V447.308H1176.49H1179.49V421H1176.49ZM1176.49 447.308V444.308H1150.18V447.308V450.308H1176.49V447.308ZM1150.18 447.308H1153.18V421H1150.18H1147.18V447.308H1150.18ZM1150.18 447.308V450.308H1176.49V447.308V444.308H1150.18V447.308ZM1176.49 447.308H1173.49V473.615H1176.49H1179.49V447.308H1176.49ZM1176.49 473.615V470.615H1150.18V473.615V476.615H1176.49V473.615ZM1150.18 473.615H1153.18V447.308H1150.18H1147.18V473.615H1150.18ZM1123.87 473.615V476.615H1150.18V473.615V470.615H1123.87V473.615ZM1150.18 473.615H1147.18V499.923H1150.18H1153.18V473.615H1150.18ZM1150.18 499.923V496.923H1123.87V499.923V502.923H1150.18V499.923ZM1123.87 499.923H1126.87V473.615H1123.87H1120.87V499.923H1123.87ZM1097.56 473.615V476.615H1123.87V473.615V470.615H1097.56V473.615ZM1123.87 473.615H1120.87V499.923H1123.87H1126.87V473.615H1123.87ZM1123.87 499.923V496.923H1097.56V499.923V502.923H1123.87V499.923ZM1097.56 499.923H1100.56V473.615H1097.56H1094.56V499.923H1097.56ZM1071.26 473.615V476.615H1097.56V473.615V470.615H1071.26V473.615ZM1097.56 473.615H1094.56V499.923H1097.56H1100.56V473.615H1097.56ZM1097.56 499.923V496.923H1071.26V499.923V502.923H1097.56V499.923ZM1071.26 499.923H1074.26V473.615H1071.26H1068.26V499.923H1071.26ZM1044.95 473.615V476.615H1071.26V473.615V470.615H1044.95V473.615ZM1071.26 473.615H1068.26V499.923H1071.26H1074.26V473.615H1071.26ZM1071.26 499.923V496.923H1044.95V499.923V502.923H1071.26V499.923ZM1044.95 499.923H1047.95V473.615H1044.95H1041.95V499.923H1044.95ZM1018.64 447.308V450.308H1044.95V447.308V444.308H1018.64V447.308ZM1044.95 447.308H1041.95V473.615H1044.95H1047.95V447.308H1044.95ZM1044.95 473.615V470.615H1018.64V473.615V476.615H1044.95V473.615ZM1018.64 473.615H1021.64V447.308H1018.64H1015.64V473.615H1018.64ZM1018.64 421V424H1044.95V421V418H1018.64V421ZM1044.95 421H1041.95V447.308H1044.95H1047.95V421H1044.95ZM1044.95 447.308V444.308H1018.64V447.308V450.308H1044.95V447.308ZM1018.64 447.308H1021.64V421H1018.64H1015.64V447.308H1018.64ZM992.333 394.692V397.692H1018.64V394.692V391.692H992.333V394.692ZM1018.64 394.692H1015.64V421H1018.64H1021.64V394.692H1018.64ZM1018.64 421V418H992.333V421V424H1018.64V421ZM992.333 421H995.333V394.692H992.333H989.333V421H992.333ZM966.025 394.692V397.692H992.333V394.692V391.692H966.025V394.692ZM992.333 394.692H989.333V421H992.333H995.333V394.692H992.333ZM992.333 421V418H966.025V421V424H992.333V421ZM966.025 421H969.025V394.692H966.025H963.025V421H966.025ZM966.025 421V424H992.333V421V418H966.025V421ZM992.333 421H989.333V447.308H992.333H995.333V421H992.333ZM992.333 447.308V444.308H966.025V447.308V450.308H992.333V447.308ZM966.025 447.308H969.025V421H966.025H963.025V447.308H966.025ZM1123.87 236.846V239.846H1150.18V236.846V233.846H1123.87V236.846ZM1150.18 236.846H1147.18V263.154H1150.18H1153.18V236.846H1150.18ZM1150.18 263.154V260.154H1123.87V263.154V266.154H1150.18V263.154ZM1123.87 263.154H1126.87V236.846H1123.87H1120.87V263.154H1123.87ZM1097.56 263.154V266.154H1123.87V263.154V260.154H1097.56V263.154ZM1123.87 263.154H1120.87V289.462H1123.87H1126.87V263.154H1123.87ZM1123.87 289.462V286.462H1097.56V289.462V292.462H1123.87V289.462ZM1097.56 289.462H1100.56V263.154H1097.56H1094.56V289.462H1097.56ZM1150.18 263.154V266.154H1176.49V263.154V260.154H1150.18V263.154ZM1176.49 263.154H1173.49V289.462H1176.49H1179.49V263.154H1176.49ZM1176.49 289.462V286.462H1150.18V289.462V292.462H1176.49V289.462ZM1150.18 289.462H1153.18V263.154H1150.18H1147.18V289.462H1150.18ZM1123.87 289.462V292.462H1150.18V289.462V286.462H1123.87V289.462ZM1150.18 289.462H1147.18V315.769H1150.18H1153.18V289.462H1150.18ZM1150.18 315.769V312.769H1123.87V315.769V318.769H1150.18V315.769ZM1123.87 315.769H1126.87V289.462H1123.87H1120.87V315.769H1123.87ZM1123.87 315.769V318.769H1150.18V315.769V312.769H1123.87V315.769ZM1150.18 315.769H1147.18V342.077H1150.18H1153.18V315.769H1150.18ZM1150.18 342.077V339.077H1123.87V342.077V345.077H1150.18V342.077ZM1123.87 342.077H1126.87V315.769H1123.87H1120.87V342.077H1123.87ZM1123.87 342.077V345.077H1150.18V342.077V339.077H1123.87V342.077ZM1150.18 342.077H1147.18V368.385H1150.18H1153.18V342.077H1150.18ZM1150.18 368.385V365.385H1123.87V368.385V371.385H1150.18V368.385ZM1123.87 368.385H1126.87V342.077H1123.87H1120.87V368.385H1123.87ZM1097.56 210.538V213.538H1123.87V210.538V207.538H1097.56V210.538ZM1123.87 210.538H1120.87V236.846H1123.87H1126.87V210.538H1123.87ZM1123.87 236.846V233.846H1097.56V236.846V239.846H1123.87V236.846ZM1097.56 236.846H1100.56V210.538H1097.56H1094.56V236.846H1097.56ZM1018.64 263.154V266.154H1044.95V263.154V260.154H1018.64V263.154ZM1044.95 263.154H1041.95V289.462H1044.95H1047.95V263.154H1044.95ZM1044.95 289.462V286.462H1018.64V289.462V292.462H1044.95V289.462ZM1018.64 289.462H1021.64V263.154H1018.64H1015.64V289.462H1018.64ZM1189.14 236.846V233.846H1186.14V236.846H1189.14ZM1215.45 236.846H1218.45V233.846H1215.45V236.846ZM1215.45 263.154V266.154H1218.45V263.154H1215.45ZM1189.14 263.154H1186.14V266.154H1189.14V263.154ZM1189.14 210.538V207.538H1186.14V210.538H1189.14ZM1215.45 210.538H1218.45V207.538H1215.45V210.538ZM1215.45 236.846V239.846H1218.45V236.846H1215.45ZM1189.14 236.846H1186.14V239.846H1189.14V236.846ZM1215.45 184.231V181.231H1212.45V184.231H1215.45ZM1241.76 184.231H1244.76V181.231H1241.76V184.231ZM1241.76 210.538V213.538H1244.76V210.538H1241.76ZM1215.45 210.538H1212.45V213.538H1215.45V210.538ZM1241.76 184.231V181.231H1238.76V184.231H1241.76ZM1268.06 184.231H1271.06V181.231H1268.06V184.231ZM1268.06 210.538V213.538H1271.06V210.538H1268.06ZM1241.76 210.538H1238.76V213.538H1241.76V210.538ZM1268.06 184.231V181.231H1265.06V184.231H1268.06ZM1294.37 184.231H1297.37V181.231H1294.37V184.231ZM1294.37 210.538V213.538H1297.37V210.538H1294.37ZM1268.06 210.538H1265.06V213.538H1268.06V210.538ZM1294.37 210.538V207.538H1291.37V210.538H1294.37ZM1320.68 210.538H1323.68V207.538H1320.68V210.538ZM1320.68 236.846V239.846H1323.68V236.846H1320.68ZM1294.37 236.846H1291.37V239.846H1294.37V236.846ZM1373.29 210.538V207.538H1370.29V210.538H1373.29ZM1399.6 210.538H1402.6V207.538H1399.6V210.538ZM1399.6 236.846V239.846H1402.6V236.846H1399.6ZM1373.29 236.846H1370.29V239.846H1373.29V236.846ZM1373.29 184.231V181.231H1370.29V184.231H1373.29ZM1399.6 184.231H1402.6V181.231H1399.6V184.231ZM1399.6 210.538V213.538H1402.6V210.538H1399.6ZM1373.29 210.538H1370.29V213.538H1373.29V210.538ZM1346.99 184.231V181.231H1343.99V184.231H1346.99ZM1373.29 184.231H1376.29V181.231H1373.29V184.231ZM1373.29 210.538V213.538H1376.29V210.538H1373.29ZM1346.99 210.538H1343.99V213.538H1346.99V210.538ZM1215.45 263.154V260.154H1212.45V263.154H1215.45ZM1241.76 263.154H1244.76V260.154H1241.76V263.154ZM1241.76 289.462V292.462H1244.76V289.462H1241.76ZM1215.45 289.462H1212.45V292.462H1215.45V289.462ZM1373.29 315.769V312.769H1370.29V315.769H1373.29ZM1399.6 315.769H1402.6V312.769H1399.6V315.769ZM1399.6 342.077V345.077H1402.6V342.077H1399.6ZM1373.29 342.077H1370.29V345.077H1373.29V342.077ZM1373.29 342.077V339.077H1370.29V342.077H1373.29ZM1399.6 342.077H1402.6V339.077H1399.6V342.077ZM1399.6 368.385V371.385H1402.6V368.385H1399.6ZM1373.29 368.385H1370.29V371.385H1373.29V368.385ZM1373.29 368.385V365.385H1370.29V368.385H1373.29ZM1399.6 368.385H1402.6V365.385H1399.6V368.385ZM1399.6 394.692V397.692H1402.6V394.692H1399.6ZM1373.29 394.692H1370.29V397.692H1373.29V394.692ZM1346.99 394.692V391.692H1343.99V394.692H1346.99ZM1373.29 394.692H1376.29V391.692H1373.29V394.692ZM1373.29 421V424H1376.29V421H1373.29ZM1346.99 421H1343.99V424H1346.99V421ZM1320.68 394.692V391.692H1317.68V394.692H1320.68ZM1346.99 394.692H1349.99V391.692H1346.99V394.692ZM1346.99 421V424H1349.99V421H1346.99ZM1320.68 421H1317.68V424H1320.68V421ZM1294.37 394.692V391.692H1291.37V394.692H1294.37ZM1320.68 394.692H1323.68V391.692H1320.68V394.692ZM1320.68 421V424H1323.68V421H1320.68ZM1294.37 421H1291.37V424H1294.37V421ZM1268.06 394.692V391.692H1265.06V394.692H1268.06ZM1294.37 394.692H1297.37V391.692H1294.37V394.692ZM1294.37 421V424H1297.37V421H1294.37ZM1268.06 421H1265.06V424H1268.06V421ZM1241.76 368.385V365.385H1238.76V368.385H1241.76ZM1268.06 368.385H1271.06V365.385H1268.06V368.385ZM1268.06 394.692V397.692H1271.06V394.692H1268.06ZM1241.76 394.692H1238.76V397.692H1241.76V394.692ZM1215.45 342.077V339.077H1212.45V342.077H1215.45ZM1241.76 342.077H1244.76V339.077H1241.76V342.077ZM1241.76 368.385V371.385H1244.76V368.385H1241.76ZM1215.45 368.385H1212.45V371.385H1215.45V368.385ZM1189.14 342.077V339.077H1186.14V342.077H1189.14ZM1215.45 342.077H1218.45V339.077H1215.45V342.077ZM1215.45 368.385V371.385H1218.45V368.385H1215.45ZM1189.14 368.385H1186.14V371.385H1189.14V368.385ZM1189.14 368.385V365.385H1186.14V368.385H1189.14ZM1215.45 368.385H1218.45V365.385H1215.45V368.385ZM1215.45 394.692V397.692H1218.45V394.692H1215.45ZM1189.14 394.692H1186.14V397.692H1189.14V394.692ZM1346.99 236.846V233.846H1343.99V236.846H1346.99ZM1373.29 236.846H1376.29V233.846H1373.29V236.846ZM1373.29 263.154V266.154H1376.29V263.154H1373.29ZM1346.99 263.154H1343.99V266.154H1346.99V263.154ZM1320.68 263.154V260.154H1317.68V263.154H1320.68ZM1346.99 263.154H1349.99V260.154H1346.99V263.154ZM1346.99 289.462V292.462H1349.99V289.462H1346.99ZM1320.68 289.462H1317.68V292.462H1320.68V289.462ZM1373.29 263.154V260.154H1370.29V263.154H1373.29ZM1399.6 263.154H1402.6V260.154H1399.6V263.154ZM1399.6 289.462V292.462H1402.6V289.462H1399.6ZM1373.29 289.462H1370.29V292.462H1373.29V289.462ZM1346.99 289.462V286.462H1343.99V289.462H1346.99ZM1373.29 289.462H1376.29V286.462H1373.29V289.462ZM1373.29 315.769V318.769H1376.29V315.769H1373.29ZM1346.99 315.769H1343.99V318.769H1346.99V315.769ZM1320.68 210.538V207.538H1317.68V210.538H1320.68ZM1346.99 210.538H1349.99V207.538H1346.99V210.538ZM1346.99 236.846V239.846H1349.99V236.846H1346.99ZM1320.68 236.846H1317.68V239.846H1320.68V236.846ZM1241.76 236.846V233.846H1238.76V236.846H1241.76ZM1268.06 236.846H1271.06V233.846H1268.06V236.846ZM1268.06 263.154V266.154H1271.06V263.154H1268.06ZM1241.76 263.154H1238.76V266.154H1241.76V263.154ZM1189.14 236.846V239.846H1215.45V236.846V233.846H1189.14V236.846ZM1215.45 236.846H1212.45V263.154H1215.45H1218.45V236.846H1215.45ZM1215.45 263.154V260.154H1189.14V263.154V266.154H1215.45V263.154ZM1189.14 263.154H1192.14V236.846H1189.14H1186.14V263.154H1189.14ZM1189.14 210.538V213.538H1215.45V210.538V207.538H1189.14V210.538ZM1215.45 210.538H1212.45V236.846H1215.45H1218.45V210.538H1215.45ZM1215.45 236.846V233.846H1189.14V236.846V239.846H1215.45V236.846ZM1189.14 236.846H1192.14V210.538H1189.14H1186.14V236.846H1189.14ZM1215.45 184.231V187.231H1241.76V184.231V181.231H1215.45V184.231ZM1241.76 184.231H1238.76V210.538H1241.76H1244.76V184.231H1241.76ZM1241.76 210.538V207.538H1215.45V210.538V213.538H1241.76V210.538ZM1215.45 210.538H1218.45V184.231H1215.45H1212.45V210.538H1215.45ZM1241.76 184.231V187.231H1268.06V184.231V181.231H1241.76V184.231ZM1268.06 184.231H1265.06V210.538H1268.06H1271.06V184.231H1268.06ZM1268.06 210.538V207.538H1241.76V210.538V213.538H1268.06V210.538ZM1241.76 210.538H1244.76V184.231H1241.76H1238.76V210.538H1241.76ZM1268.06 184.231V187.231H1294.37V184.231V181.231H1268.06V184.231ZM1294.37 184.231H1291.37V210.538H1294.37H1297.37V184.231H1294.37ZM1294.37 210.538V207.538H1268.06V210.538V213.538H1294.37V210.538ZM1268.06 210.538H1271.06V184.231H1268.06H1265.06V210.538H1268.06ZM1294.37 210.538V213.538H1320.68V210.538V207.538H1294.37V210.538ZM1320.68 210.538H1317.68V236.846H1320.68H1323.68V210.538H1320.68ZM1320.68 236.846V233.846H1294.37V236.846V239.846H1320.68V236.846ZM1294.37 236.846H1297.37V210.538H1294.37H1291.37V236.846H1294.37ZM1373.29 210.538V213.538H1399.6V210.538V207.538H1373.29V210.538ZM1399.6 210.538H1396.6V236.846H1399.6H1402.6V210.538H1399.6ZM1399.6 236.846V233.846H1373.29V236.846V239.846H1399.6V236.846ZM1373.29 236.846H1376.29V210.538H1373.29H1370.29V236.846H1373.29ZM1373.29 184.231V187.231H1399.6V184.231V181.231H1373.29V184.231ZM1399.6 184.231H1396.6V210.538H1399.6H1402.6V184.231H1399.6ZM1399.6 210.538V207.538H1373.29V210.538V213.538H1399.6V210.538ZM1373.29 210.538H1376.29V184.231H1373.29H1370.29V210.538H1373.29ZM1346.99 184.231V187.231H1373.29V184.231V181.231H1346.99V184.231ZM1373.29 184.231H1370.29V210.538H1373.29H1376.29V184.231H1373.29ZM1373.29 210.538V207.538H1346.99V210.538V213.538H1373.29V210.538ZM1346.99 210.538H1349.99V184.231H1346.99H1343.99V210.538H1346.99ZM1215.45 263.154V266.154H1241.76V263.154V260.154H1215.45V263.154ZM1241.76 263.154H1238.76V289.462H1241.76H1244.76V263.154H1241.76ZM1241.76 289.462V286.462H1215.45V289.462V292.462H1241.76V289.462ZM1215.45 289.462H1218.45V263.154H1215.45H1212.45V289.462H1215.45ZM1373.29 315.769V318.769H1399.6V315.769V312.769H1373.29V315.769ZM1399.6 315.769H1396.6V342.077H1399.6H1402.6V315.769H1399.6ZM1399.6 342.077V339.077H1373.29V342.077V345.077H1399.6V342.077ZM1373.29 342.077H1376.29V315.769H1373.29H1370.29V342.077H1373.29ZM1373.29 342.077V345.077H1399.6V342.077V339.077H1373.29V342.077ZM1399.6 342.077H1396.6V368.385H1399.6H1402.6V342.077H1399.6ZM1399.6 368.385V365.385H1373.29V368.385V371.385H1399.6V368.385ZM1373.29 368.385H1376.29V342.077H1373.29H1370.29V368.385H1373.29ZM1373.29 368.385V371.385H1399.6V368.385V365.385H1373.29V368.385ZM1399.6 368.385H1396.6V394.692H1399.6H1402.6V368.385H1399.6ZM1399.6 394.692V391.692H1373.29V394.692V397.692H1399.6V394.692ZM1373.29 394.692H1376.29V368.385H1373.29H1370.29V394.692H1373.29ZM1346.99 394.692V397.692H1373.29V394.692V391.692H1346.99V394.692ZM1373.29 394.692H1370.29V421H1373.29H1376.29V394.692H1373.29ZM1373.29 421V418H1346.99V421V424H1373.29V421ZM1346.99 421H1349.99V394.692H1346.99H1343.99V421H1346.99ZM1320.68 394.692V397.692H1346.99V394.692V391.692H1320.68V394.692ZM1346.99 394.692H1343.99V421H1346.99H1349.99V394.692H1346.99ZM1346.99 421V418H1320.68V421V424H1346.99V421ZM1320.68 421H1323.68V394.692H1320.68H1317.68V421H1320.68ZM1294.37 394.692V397.692H1320.68V394.692V391.692H1294.37V394.692ZM1320.68 394.692H1317.68V421H1320.68H1323.68V394.692H1320.68ZM1320.68 421V418H1294.37V421V424H1320.68V421ZM1294.37 421H1297.37V394.692H1294.37H1291.37V421H1294.37ZM1268.06 394.692V397.692H1294.37V394.692V391.692H1268.06V394.692ZM1294.37 394.692H1291.37V421H1294.37H1297.37V394.692H1294.37ZM1294.37 421V418H1268.06V421V424H1294.37V421ZM1268.06 421H1271.06V394.692H1268.06H1265.06V421H1268.06ZM1241.76 368.385V371.385H1268.06V368.385V365.385H1241.76V368.385ZM1268.06 368.385H1265.06V394.692H1268.06H1271.06V368.385H1268.06ZM1268.06 394.692V391.692H1241.76V394.692V397.692H1268.06V394.692ZM1241.76 394.692H1244.76V368.385H1241.76H1238.76V394.692H1241.76ZM1215.45 342.077V345.077H1241.76V342.077V339.077H1215.45V342.077ZM1241.76 342.077H1238.76V368.385H1241.76H1244.76V342.077H1241.76ZM1241.76 368.385V365.385H1215.45V368.385V371.385H1241.76V368.385ZM1215.45 368.385H1218.45V342.077H1215.45H1212.45V368.385H1215.45ZM1189.14 342.077V345.077H1215.45V342.077V339.077H1189.14V342.077ZM1215.45 342.077H1212.45V368.385H1215.45H1218.45V342.077H1215.45ZM1215.45 368.385V365.385H1189.14V368.385V371.385H1215.45V368.385ZM1189.14 368.385H1192.14V342.077H1189.14H1186.14V368.385H1189.14ZM1189.14 368.385V371.385H1215.45V368.385V365.385H1189.14V368.385ZM1215.45 368.385H1212.45V394.692H1215.45H1218.45V368.385H1215.45ZM1215.45 394.692V391.692H1189.14V394.692V397.692H1215.45V394.692ZM1189.14 394.692H1192.14V368.385H1189.14H1186.14V394.692H1189.14ZM1346.99 236.846V239.846H1373.29V236.846V233.846H1346.99V236.846ZM1373.29 236.846H1370.29V263.154H1373.29H1376.29V236.846H1373.29ZM1373.29 263.154V260.154H1346.99V263.154V266.154H1373.29V263.154ZM1346.99 263.154H1349.99V236.846H1346.99H1343.99V263.154H1346.99ZM1320.68 263.154V266.154H1346.99V263.154V260.154H1320.68V263.154ZM1346.99 263.154H1343.99V289.462H1346.99H1349.99V263.154H1346.99ZM1346.99 289.462V286.462H1320.68V289.462V292.462H1346.99V289.462ZM1320.68 289.462H1323.68V263.154H1320.68H1317.68V289.462H1320.68ZM1373.29 263.154V266.154H1399.6V263.154V260.154H1373.29V263.154ZM1399.6 263.154H1396.6V289.462H1399.6H1402.6V263.154H1399.6ZM1399.6 289.462V286.462H1373.29V289.462V292.462H1399.6V289.462ZM1373.29 289.462H1376.29V263.154H1373.29H1370.29V289.462H1373.29ZM1346.99 289.462V292.462H1373.29V289.462V286.462H1346.99V289.462ZM1373.29 289.462H1370.29V315.769H1373.29H1376.29V289.462H1373.29ZM1373.29 315.769V312.769H1346.99V315.769V318.769H1373.29V315.769ZM1346.99 315.769H1349.99V289.462H1346.99H1343.99V315.769H1346.99ZM1320.68 210.538V213.538H1346.99V210.538V207.538H1320.68V210.538ZM1346.99 210.538H1343.99V236.846H1346.99H1349.99V210.538H1346.99ZM1346.99 236.846V233.846H1320.68V236.846V239.846H1346.99V236.846ZM1320.68 236.846H1323.68V210.538H1320.68H1317.68V236.846H1320.68ZM1241.76 236.846V239.846H1268.06V236.846V233.846H1241.76V236.846ZM1268.06 236.846H1265.06V263.154H1268.06H1271.06V236.846H1268.06ZM1268.06 263.154V260.154H1241.76V263.154V266.154H1268.06V263.154ZM1241.76 263.154H1244.76V236.846H1241.76H1238.76V263.154H1241.76Z" fill="#7D5FFF" fill-opacity="0.5" mask="url(#path-1-outside-1_4_326)"/>
</svg>
